<?xml version="1.0" encoding="utf-8"?>
<!-- Generator: Adobe Illustrator 27.6.1, SVG Export Plug-In . SVG Version: 6.00 Build 0)  -->
<svg version="1.1" id="Layer_1" xmlns="http://www.w3.org/2000/svg" xmlns:xlink="http://www.w3.org/1999/xlink" x="0px" y="0px"
	 viewBox="0 0 800 800" style="enable-background:new 0 0 800 800;" xml:space="preserve">
<style type="text/css">
	.st0{opacity:0.72;fill:#ED1C24;enable-background:new    ;}
	.st1{fill:none;stroke:#323232;stroke-width:66.6667;stroke-miterlimit:133.3333;}
	.st2{fill:none;stroke:#DFFF94;stroke-width:66.667;stroke-linecap:round;stroke-linejoin:round;stroke-miterlimit:133.3333;}
</style>
<g>
	<path class="st0" d="M44,400c0-293.2,62.8-356,356-356s356,62.8,356,356s-62.9,356-356,356S44,693.1,44,400z"/>
	<path class="st1" d="M44,400c0-293.2,62.8-356,356-356s356,62.8,356,356s-62.9,356-356,356S44,693.1,44,400z"/>
	<g>
		<path class="st2" d="M209.4,541.3l127.9-127.9l0,0c7.4-7.4,7.4-19.4,0-26.7l0,0L209.4,258.7"/>
		<path class="st2" d="M457.2,541.3l127.9-127.9l0,0c7.4-7.4,7.4-19.4,0-26.7l0,0L457.2,258.7"/>
	</g>
</g>
</svg>
