<?xml version="1.0" encoding="utf-8"?>
<!-- Generator: Adobe Illustrator 27.6.1, SVG Export Plug-In . SVG Version: 6.00 Build 0)  -->
<svg version="1.1" id="Layer_1" xmlns="http://www.w3.org/2000/svg" xmlns:xlink="http://www.w3.org/1999/xlink" x="0px" y="0px"
	 viewBox="0 0 800 800" style="enable-background:new 0 0 800 800;" xml:space="preserve">
<style type="text/css">
	.st0{opacity:0.72;fill:#ED1C24;enable-background:new    ;}
	.st1{fill:none;stroke:#DFFF94;stroke-width:66.667;stroke-linecap:round;stroke-linejoin:round;stroke-miterlimit:133.3333;}
	.st2{fill:none;stroke:#323232;stroke-width:66.6667;stroke-miterlimit:133.3333;}
</style>
<path class="st0" d="M100,398.7c0-247.1,52.9-300,300-300s300,52.9,300,300s-53,300-300,300S100,645.7,100,398.7z"/>
<path class="st1" d="M264.5,498.7l90.5-90.5l0,0c5.2-5.2,5.2-13.7,0-18.9l0,0l-90.5-90.5"/>
<path class="st2" d="M100,398.7c0-247.1,52.9-300,300-300s300,52.9,300,300s-53,300-300,300S100,645.7,100,398.7z"/>
<path class="st1" d="M439.8,498.7l90.5-90.5l0,0c5.2-5.2,5.2-13.7,0-18.9l0,0l-90.5-90.5"/>
</svg>
